HIERARCHY
ROOT joint_0
{
	OFFSET 0.000000 0.000000 0.000000
	CHANNELS 6 Xposition Yposition Zposition Zrotation Yrotation Xrotation 
	JOINT joint_1
	{
		OFFSET 8.185791 -2.713684 100.414917
		CHANNELS 3 Zrotation Yrotation Xrotation
		JOINT joint_2
		{
			OFFSET -4.376465 -1.111145 91.934082
			CHANNELS 3 Zrotation Yrotation Xrotation
			JOINT joint_3
			{
				OFFSET -6.985840 -1.054016 91.669922
				CHANNELS 3 Zrotation Yrotation Xrotation
				JOINT joint_4
				{
					OFFSET 0.150391 -4.451904 123.526001
					CHANNELS 3 Zrotation Yrotation Xrotation
					JOINT joint_5
					{
						OFFSET 19.754150 -8.123901 80.916992
						CHANNELS 3 Zrotation Yrotation Xrotation
						End Site
						{
							OFFSET 0.000000 0.000000 0.000000
						}
					}
				}
				JOINT joint_6
				{
					OFFSET -6.477539 -28.517334 68.237061
					CHANNELS 3 Zrotation Yrotation Xrotation
					JOINT joint_7
					{
						OFFSET -20.564453 -115.426208 -21.139038
						CHANNELS 3 Zrotation Yrotation Xrotation
						JOINT joint_8
						{
							OFFSET 18.981934 -19.826172 -267.898926
							CHANNELS 3 Zrotation Yrotation Xrotation
							JOINT joint_9
							{
								OFFSET 11.562744 -19.325867 -235.478027
								CHANNELS 3 Zrotation Yrotation Xrotation
								End Site
								{
									OFFSET 0.000000 0.000000 0.000000
								}
							}
						}
					}
				}
				JOINT joint_10
				{
					OFFSET 7.033936 23.504700 70.088989
					CHANNELS 3 Zrotation Yrotation Xrotation
					JOINT joint_11
					{
						OFFSET 36.629639 112.486816 -14.036987
						CHANNELS 3 Zrotation Yrotation Xrotation
						JOINT joint_12
						{
							OFFSET 41.355225 -7.048523 -266.019897
							CHANNELS 3 Zrotation Yrotation Xrotation
							JOINT joint_13
							{
								OFFSET 5.858887 29.785156 -234.603027
								CHANNELS 3 Zrotation Yrotation Xrotation
								End Site
								{
									OFFSET 0.000000 0.000000 0.000000
								}
							}
						}
					}
				}
			}
		}
	}
	JOINT joint_14
	{
		OFFSET -8.917725 -79.985535 -99.035034
		CHANNELS 3 Zrotation Yrotation Xrotation
		JOINT joint_15
		{
			OFFSET -32.739502 -31.478882 -502.570984
			CHANNELS 3 Zrotation Yrotation Xrotation
			JOINT joint_16
			{
				OFFSET 7.393066 -29.352966 -399.008011
				CHANNELS 3 Zrotation Yrotation Xrotation
				JOINT joint_17
				{
					OFFSET 178.013916 -26.060303 -71.875002
					CHANNELS 3 Zrotation Yrotation Xrotation
					End Site
					{
						OFFSET 0.000000 0.000000 0.000000
					}
				}
			}
		}
	}
	JOINT joint_18
	{
		OFFSET 1.900879 81.159851 -98.481018
		CHANNELS 3 Zrotation Yrotation Xrotation
		JOINT joint_19
		{
			OFFSET -15.120850 31.602051 -503.400024
			CHANNELS 3 Zrotation Yrotation Xrotation
			JOINT joint_20
			{
				OFFSET -16.653076 23.887695 -399.091988
				CHANNELS 3 Zrotation Yrotation Xrotation
				JOINT joint_21
				{
					OFFSET 179.618164 -1.217651 -72.592001
					CHANNELS 3 Zrotation Yrotation Xrotation
					End Site
					{
						OFFSET 0.000000 0.000000 0.000000
					}
				}
			}
		}
	}
}
MOTION
Frames: 18
Frame Time: 0.016667
-2915.589111 750.201782 1076.083984 -0.951818 5.291145 3.846749 1.329787 2.974211 -3.045116 1.242944 -0.632477 0.895949 1.123985 0.669482 -0.448772 -0.821194 -1.648981 2.505670 0.000000 0.000000 0.000000 -1.808894 5.476297 0.390627 0.124604 5.211149 0.165226 0.400311 -5.629797 -1.908176 0.000000 0.000000 0.000000 2.909515 2.068897 3.052706 0.344024 2.191804 1.756227 -0.774676 -3.846902 -7.480344 0.000000 0.000000 0.000000 3.766162 -34.382585 -6.412500 0.885753 34.246171 3.250570 4.265616 -3.141949 1.075442 0.000000 0.000000 0.000000 1.942906 4.455630 -1.449384 3.005576 25.725135 0.776782 2.629952 2.698236 0.986546 0.000000 0.000000 0.000000 
-2899.193115 743.784668 1070.073975 0.292785 4.909751 3.970269 1.150001 2.659872 -2.902790 1.193287 -0.634135 0.836218 1.097843 0.606862 -0.410335 -0.821715 -1.250405 2.680720 0.000000 0.000000 0.000000 -1.949570 5.925075 0.285852 0.135016 5.565501 0.451122 0.407715 -5.739848 -1.797454 0.000000 0.000000 0.000000 2.973518 2.163372 3.076172 0.373882 2.212259 1.987824 -0.793499 -3.716432 -7.693272 0.000000 0.000000 0.000000 4.504269 -32.988542 -6.734831 1.651117 29.519361 3.960095 4.912979 -0.498754 1.709790 0.000000 0.000000 0.000000 1.233319 4.674600 -0.751439 2.538406 27.676436 0.592695 2.087558 2.734531 0.817075 0.000000 0.000000 0.000000 
-2883.545654 736.893555 1063.427002 1.447490 4.401468 3.897545 1.024054 2.516653 -2.493962 1.079726 -0.575162 0.713539 1.006798 0.556162 -0.329486 -0.824952 -1.000337 2.801493 0.000000 0.000000 0.000000 -1.704315 6.222106 0.215879 0.117533 5.865543 0.624320 0.399418 -5.685832 -1.701975 0.000000 0.000000 0.000000 3.131724 2.334962 3.080188 0.424975 2.181365 2.558727 -0.900658 -3.999189 -8.403896 0.000000 0.000000 0.000000 4.211848 -33.044279 -6.116010 1.395681 30.651047 3.337402 5.070551 -0.916847 1.696984 0.000000 0.000000 0.000000 0.409624 4.832314 0.164864 1.917244 29.976791 0.381599 1.415321 2.960902 0.622708 0.000000 0.000000 0.000000 
-2868.219482 729.492798 1055.932983 2.649499 3.781253 3.646813 0.904361 2.445951 -1.813804 0.908225 -0.460756 0.512550 0.863942 0.499149 -0.212832 -0.824825 -0.826641 2.876269 0.000000 0.000000 0.000000 -1.159177 6.458741 0.151812 0.079660 6.175185 0.728217 0.385124 -5.534585 -1.568184 0.000000 0.000000 0.000000 3.403121 2.586158 3.044445 0.488025 2.100374 3.439336 -1.090320 -4.547387 -9.564541 0.000000 0.000000 0.000000 2.983943 -34.136294 -4.760329 0.222925 36.384897 1.839568 4.884645 -3.563036 1.212013 0.000000 0.000000 0.000000 -0.578466 4.954806 1.307081 1.100005 32.577391 0.106314 0.542189 3.386862 0.388077 0.000000 0.000000 0.000000 
-2853.500488 722.018982 1049.619995 4.030061 3.108590 3.372619 0.721983 2.666671 -1.276187 0.676363 -0.496490 0.406867 0.651412 0.463942 -0.086985 -0.830006 -0.737894 2.933831 0.000000 0.000000 0.000000 -0.737910 6.510337 0.177431 0.033714 6.308095 0.753220 0.347202 -5.093469 -1.549270 0.000000 0.000000 0.000000 3.546470 2.828028 3.019493 0.480305 2.051836 4.238755 -1.301400 -5.206148 -10.560464 0.000000 0.000000 0.000000 1.496873 -34.813027 -3.301055 -1.173965 41.849239 0.117685 4.270185 -5.936665 0.601963 0.000000 0.000000 0.000000 -1.614465 4.693766 2.428539 0.299539 35.670482 -0.113088 -0.258574 4.047608 0.200343 0.000000 0.000000 0.000000 
-2839.534424 714.571472 1045.933960 5.224161 2.729610 2.900769 0.576675 2.777165 -0.752511 0.545964 -0.537307 0.335305 0.538759 0.483525 0.018518 -0.846211 -0.764979 2.984630 0.000000 0.000000 0.000000 -0.796271 6.211983 0.399759 -0.011401 6.061559 0.645163 0.250291 -4.003320 -1.811407 0.000000 0.000000 0.000000 3.342329 3.026016 3.100655 0.335969 2.166654 4.635451 -1.485612 -6.009073 -10.934086 0.000000 0.000000 0.000000 0.511336 -34.641841 -1.800365 -2.284506 44.320356 -1.157364 3.523388 -7.537610 0.070145 0.000000 0.000000 0.000000 -2.506594 3.502654 3.654669 -0.147562 39.552442 -0.308499 -0.596346 4.997050 0.194815 0.000000 0.000000 0.000000 
-2826.197754 706.976624 1044.094971 6.308224 2.573312 2.167174 0.445699 2.796407 -0.022048 0.477527 -0.562462 0.191223 0.499673 0.550787 0.119170 -0.867773 -0.900436 3.011984 0.000000 0.000000 0.000000 -1.186135 5.606521 0.808453 -0.063093 5.510326 0.373363 0.089953 -2.330713 -2.294913 0.000000 0.000000 0.000000 2.879588 3.220175 3.261186 0.085718 2.418409 4.781114 -1.664585 -7.023043 -10.906552 0.000000 0.000000 0.000000 -0.281765 -34.059620 -0.003089 -3.383241 45.518652 -2.278611 2.592711 -9.109972 -0.518219 0.000000 0.000000 0.000000 -3.350485 1.578253 5.107386 -0.420941 44.047209 -0.484922 -0.581413 6.431553 0.358545 0.000000 0.000000 0.000000 
-2813.789551 700.125549 1043.702026 7.271889 2.562064 1.499784 0.333189 2.786293 0.704587 0.454869 -0.587852 0.020416 0.513907 0.604434 0.210046 -0.895217 -1.046284 3.054855 0.000000 0.000000 0.000000 -1.538001 5.027026 1.142920 -0.115634 4.979890 0.100391 -0.046561 -1.046583 -2.720144 0.000000 0.000000 0.000000 2.453085 3.295162 3.365303 -0.145253 2.583444 4.770749 -1.792712 -7.793789 -10.636851 0.000000 0.000000 0.000000 -0.913217 -33.401580 1.659854 -4.360411 46.076688 -3.317669 1.676321 -10.343415 -1.047961 0.000000 0.000000 0.000000 -4.104409 -0.617213 6.312430 -0.666542 48.334221 -0.522898 -0.381402 8.106549 0.634779 0.000000 0.000000 0.000000 
-2802.541504 694.699585 1044.707031 8.066747 2.715768 1.174555 0.267672 2.666607 1.193214 0.479160 -0.583806 -0.100399 0.571056 0.597016 0.277077 -0.934059 -1.123082 3.163095 0.000000 0.000000 0.000000 -1.564215 4.725414 1.168581 -0.151791 4.698546 -0.000498 -0.076836 -0.831789 -2.872351 0.000000 0.000000 0.000000 2.279366 3.150528 3.308248 -0.258798 2.495289 4.621138 -1.817395 -7.931952 -10.156016 0.000000 0.000000 0.000000 -1.359933 -32.925108 2.846884 -5.124417 46.301923 -4.376639 0.897522 -11.006874 -1.437877 0.000000 0.000000 0.000000 -4.657395 -2.937081 6.900257 -0.858697 52.032260 -0.346746 0.024028 9.775659 1.006588 0.000000 0.000000 0.000000 
-2792.335693 690.354004 1047.240967 8.685725 3.053656 1.053625 0.262534 2.415675 1.565444 0.553242 -0.538625 -0.210206 0.677262 0.550842 0.322581 -0.984541 -1.172614 3.320035 0.000000 0.000000 0.000000 -1.401075 4.580752 0.975118 -0.175154 4.545490 0.020128 -0.035710 -1.323157 -2.881473 0.000000 0.000000 0.000000 2.250249 2.837151 3.133089 -0.298199 2.242392 4.294115 -1.750270 -7.626572 -9.397334 0.000000 0.000000 0.000000 -1.603895 -32.518734 3.755854 -5.719945 46.023934 -5.458240 0.198666 -11.282750 -1.731195 0.000000 0.000000 0.000000 -4.980715 -5.555565 7.064055 -0.948736 55.455731 0.014128 0.749087 11.490885 1.508906 0.000000 0.000000 0.000000 
-2783.049316 686.726013 1050.506958 9.129309 3.331772 1.009806 0.311551 2.343843 1.892375 0.679961 -0.525183 -0.307510 0.837228 0.522999 0.357055 -1.036498 -1.241996 3.470486 0.000000 0.000000 0.000000 -1.219278 4.480187 0.691813 -0.197704 4.424519 0.038076 0.042867 -2.307907 -2.912619 0.000000 0.000000 0.000000 2.235151 2.462433 2.910144 -0.305927 1.909104 3.972944 -1.678036 -7.287113 -8.728939 0.000000 0.000000 0.000000 -1.674211 -32.019502 4.419373 -6.151141 45.501962 -6.280897 -0.362488 -11.299031 -1.930722 0.000000 0.000000 0.000000 -5.187464 -8.074588 6.871986 -1.064608 58.568579 0.505332 1.184015 12.531617 1.906744 0.000000 0.000000 0.000000 
-2774.750977 683.617554 1054.067993 9.383445 3.367034 0.982451 0.398462 2.703917 2.199777 0.895642 -0.571938 -0.378221 1.089279 0.547494 0.391868 -1.084746 -1.390307 3.574360 0.000000 0.000000 0.000000 -1.133305 4.363789 0.393430 -0.230254 4.281334 -0.006840 0.135743 -3.747121 -3.108843 0.000000 0.000000 0.000000 2.137119 2.058933 2.677719 -0.299981 1.510239 3.786287 -1.665162 -7.147099 -8.448131 0.000000 0.000000 0.000000 -1.577352 -31.313065 4.808634 -6.397176 44.919560 -6.620097 -0.727154 -11.121380 -2.028329 0.000000 0.000000 0.000000 -5.340815 -10.232124 6.307875 -1.236675 61.401661 1.143539 0.794498 12.201089 1.968636 0.000000 0.000000 0.000000 
-2767.489746 681.158081 1058.238037 9.442056 3.257392 1.006505 0.514346 3.369102 2.480498 1.208437 -0.645378 -0.427574 1.440894 0.603608 0.417541 -1.132899 -1.603242 3.649995 0.000000 0.000000 0.000000 -1.084059 4.269925 0.038927 -0.291206 4.154226 -0.070635 0.231924 -5.715662 -3.439026 0.000000 0.000000 0.000000 2.006930 1.586679 2.409915 -0.267622 1.017587 3.654850 -1.678265 -7.050669 -8.407916 0.000000 0.000000 0.000000 -1.298688 -30.460593 4.928070 -6.457625 44.178849 -6.588571 -0.922006 -10.723361 -2.028145 0.000000 0.000000 0.000000 -5.342722 -12.207144 5.360381 -1.345638 64.004823 1.981912 -0.099666 10.777457 1.746842 0.000000 0.000000 0.000000 
-2760.590820 679.228638 1062.538940 9.327151 3.161862 1.014036 0.631670 3.991763 2.747878 1.534651 -0.716051 -0.473645 1.806972 0.654392 0.430964 -1.166836 -1.728732 3.706687 0.000000 0.000000 0.000000 -1.074913 4.154643 -0.318800 -0.398493 4.034676 -0.282725 0.304206 -7.820204 -3.697951 0.000000 0.000000 0.000000 1.903020 1.180361 2.161814 -0.240577 0.584848 3.546342 -1.702572 -7.008815 -8.454460 0.000000 0.000000 0.000000 -0.907238 -29.593272 4.952383 -6.403771 43.312942 -6.346027 -1.034369 -10.243690 -1.984967 0.000000 0.000000 0.000000 -5.190539 -14.073544 4.325854 -1.364445 66.284936 2.848656 -1.065500 9.206459 1.389360 0.000000 0.000000 0.000000 
-2753.597412 677.825623 1066.714966 9.049271 3.214214 0.976862 0.755089 4.292662 2.967392 1.802073 -0.763719 -0.503167 2.109533 0.685165 0.429298 -1.174558 -1.643891 3.748976 0.000000 0.000000 0.000000 -1.112178 3.975641 -0.607670 -0.553574 3.922600 -0.813159 0.358369 -9.829519 -3.676476 0.000000 0.000000 0.000000 1.873598 0.940944 1.973199 -0.239406 0.321181 3.452543 -1.731795 -7.045651 -8.507283 0.000000 0.000000 0.000000 -0.430000 -28.823360 4.948971 -6.270077 42.326906 -5.958848 -1.110421 -9.752897 -1.927093 0.000000 0.000000 0.000000 -4.909808 -15.920605 3.365191 -1.305658 68.222024 3.647942 -1.941028 8.100514 0.973711 0.000000 0.000000 0.000000 
-2746.771973 676.998779 1070.959961 8.609683 3.359493 0.925311 0.902497 4.397495 3.123822 2.034413 -0.799904 -0.505448 2.370458 0.711988 0.416950 -1.160369 -1.403962 3.768910 0.000000 0.000000 0.000000 -1.191424 3.736007 -0.812525 -0.758293 3.823073 -1.648645 0.401764 -11.893358 -3.421779 0.000000 0.000000 0.000000 1.896483 0.814319 1.823120 -0.251213 0.164806 3.386818 -1.771308 -7.149784 -8.621104 0.000000 0.000000 0.000000 0.152841 -28.101895 4.841941 -6.034051 41.200855 -5.370629 -1.125091 -9.192249 -1.836608 0.000000 0.000000 0.000000 -4.513374 -17.737871 2.366825 -1.184196 69.860838 4.441365 -2.874887 7.093029 0.436756 0.000000 0.000000 0.000000 
-2740.133545 676.372620 1074.916992 8.088157 3.481281 0.846195 1.048456 4.484205 3.257603 2.237005 -0.839340 -0.512091 2.598658 0.738816 0.405282 -1.145413 -1.110287 3.803623 0.000000 0.000000 0.000000 -1.254920 3.451514 -0.963187 -0.979221 3.703732 -2.528367 0.423958 -13.892732 -3.125051 0.000000 0.000000 0.000000 1.920264 0.745210 1.723867 -0.271515 0.074548 3.340128 -1.810637 -7.295566 -8.724336 0.000000 0.000000 0.000000 0.729625 -27.346771 4.743482 -5.754653 40.042188 -4.732661 -1.109069 -8.667976 -1.742202 0.000000 0.000000 0.000000 -4.078562 -19.377808 1.448232 -1.049417 71.155715 5.072818 -3.841304 5.893374 -0.173125 0.000000 0.000000 0.000000 
-2733.670654 675.695679 1078.348022 7.536869 3.513207 0.739579 1.162570 4.644720 3.373656 2.408624 -0.881661 -0.540554 2.794908 0.767275 0.408597 -1.142549 -0.820759 3.879081 0.000000 0.000000 0.000000 -1.255778 3.133401 -1.097665 -1.187424 3.539573 -3.275289 0.424721 -15.760647 -2.909405 0.000000 0.000000 0.000000 1.916985 0.709299 1.693488 -0.304508 0.039534 3.300784 -1.845305 -7.491858 -8.760308 0.000000 0.000000 0.000000 1.232903 -26.507239 4.713087 -5.465764 38.910918 -4.128411 -1.077416 -8.263666 -1.662021 0.000000 0.000000 0.000000 -3.681438 -20.752208 0.701178 -0.950444 72.076186 5.401224 -4.887816 4.285425 -0.845952 0.000000 0.000000 0.000000 
